<svg width="34" height="40" viewBox="0 0 34 40" fill="none" xmlns="http://www.w3.org/2000/svg">
<path d="M3.39996 9.33332C3.24978 9.33083 3.10068 9.36347 2.96131 9.42935C2.82195 9.49524 2.69511 9.59305 2.58815 9.71711C2.4812 9.84117 2.39627 9.989 2.33831 10.152C2.28034 10.315 2.25049 10.49 2.25049 10.6667C2.25049 10.8434 2.28034 11.0183 2.33831 11.1813C2.39627 11.3443 2.4812 11.4921 2.58815 11.6162C2.69511 11.7403 2.82195 11.8381 2.96131 11.904C3.10068 11.9698 3.24978 12.0025 3.39996 12H30.6C30.7501 12.0025 30.8992 11.9698 31.0386 11.904C31.178 11.8381 31.3048 11.7403 31.4118 11.6162C31.5187 11.4921 31.6037 11.3443 31.6616 11.1813C31.7196 11.0183 31.7494 10.8434 31.7494 10.6667C31.7494 10.49 31.7196 10.315 31.6616 10.152C31.6037 9.989 31.5187 9.84117 31.4118 9.71711C31.3048 9.59305 31.178 9.49524 31.0386 9.42935C30.8992 9.36347 30.7501 9.33083 30.6 9.33332H3.39996ZM3.39996 18.6667C3.24978 18.6642 3.10068 18.6968 2.96131 18.7627C2.82195 18.8286 2.69511 18.9264 2.58815 19.0504C2.4812 19.1745 2.39627 19.3223 2.33831 19.4853C2.28034 19.6484 2.25049 19.8233 2.25049 20C2.25049 20.1767 2.28034 20.3516 2.33831 20.5146C2.39627 20.6777 2.4812 20.8255 2.58815 20.9495C2.69511 21.0736 2.82195 21.1714 2.96131 21.2373C3.10068 21.3032 3.24978 21.3358 3.39996 21.3333H30.6C30.7501 21.3358 30.8992 21.3032 31.0386 21.2373C31.178 21.1714 31.3048 21.0736 31.4118 20.9495C31.5187 20.8255 31.6037 20.6777 31.6616 20.5146C31.7196 20.3516 31.7494 20.1767 31.7494 20C31.7494 19.8233 31.7196 19.6484 31.6616 19.4853C31.6037 19.3223 31.5187 19.1745 31.4118 19.0504C31.3048 18.9264 31.178 18.8286 31.0386 18.7627C30.8992 18.6968 30.7501 18.6642 30.6 18.6667H3.39996ZM9.64948 28.1767C9.49929 28.1742 9.35019 28.2068 9.21083 28.2727C9.07146 28.3386 8.94462 28.4364 8.83767 28.5605C8.73071 28.6845 8.64579 28.8324 8.58782 28.9954C8.52985 29.1584 8.5 29.3333 8.5 29.51C8.5 29.6867 8.52985 29.8617 8.58782 30.0247C8.64579 30.1877 8.73071 30.3355 8.83767 30.4596C8.94462 30.5836 9.07146 30.6814 9.21083 30.7473C9.35019 30.8132 9.49929 30.8459 9.64948 30.8434L30.6 30.6667C30.7501 30.6692 30.8992 30.6365 31.0386 30.5706C31.178 30.5047 31.3048 30.4069 31.4118 30.2829C31.5187 30.1588 31.6037 30.011 31.6616 29.848C31.7196 29.685 31.7494 29.51 31.7494 29.3333C31.7494 29.1566 31.7196 28.9817 31.6616 28.8187C31.6037 28.6557 31.5187 28.5078 31.4118 28.3838C31.3048 28.2597 31.178 28.1619 31.0386 28.096C30.8992 28.0301 30.7501 27.9975 30.6 28L9.64948 28.1767Z" fill="white"/>
</svg>
