<svg width="14" height="13" viewBox="0 0 14 13" fill="none" xmlns="http://www.w3.org/2000/svg">
<path d="M5.45116 0.421387C2.56396 0.421387 0.22876 2.75659 0.22876 5.64379C0.22876 8.53099 2.56396 10.8662 5.45116 10.8662C6.48196 10.8662 7.43596 10.5638 8.24476 10.0502L12.0176 13.823L13.3232 12.5174L9.59836 8.80219C10.268 7.92379 10.6736 6.83539 10.6736 5.64379C10.6736 2.75659 8.33836 0.421387 5.45116 0.421387ZM5.45116 1.65019C7.66276 1.65019 9.44476 3.43219 9.44476 5.64379C9.44476 7.85539 7.66276 9.63739 5.45116 9.63739C3.23956 9.63739 1.45756 7.85539 1.45756 5.64379C1.45756 3.43219 3.23956 1.65019 5.45116 1.65019Z" fill="#F6D093"/>
</svg>
