<svg width="21" height="21" viewBox="0 0 21 21" fill="none" xmlns="http://www.w3.org/2000/svg">
<path d="M11.0599 0.97998C5.72991 0.97998 1.3999 5.30999 1.3999 10.64C1.3999 12.3532 1.86975 13.9521 2.65334 15.3478L1.41549 19.7668C1.37524 19.9107 1.41448 20.0651 1.51852 20.1724C1.62256 20.2796 1.77574 20.3235 1.9208 20.2877L6.52849 19.1458C7.88244 19.8686 9.41879 20.3 11.0599 20.3C16.3899 20.3 20.7199 15.97 20.7199 10.64C20.7199 5.30998 16.3899 0.97998 11.0599 0.97998ZM11.0599 1.81998C15.9359 1.81998 19.8799 5.76398 19.8799 10.64C19.8799 15.516 15.9359 19.46 11.0599 19.46C9.49667 19.46 8.03259 19.0524 6.75983 18.3403C6.66674 18.2882 6.55735 18.2736 6.45385 18.2992L2.41873 19.2992L3.50072 15.4388C3.53201 15.3286 3.5169 15.2103 3.45889 15.1115C2.68539 13.7999 2.2399 12.2738 2.2399 10.64C2.2399 5.76398 6.1839 1.81998 11.0599 1.81998ZM7.54979 5.59998C7.28055 5.59998 6.89604 5.70015 6.58018 6.04049C6.39046 6.24491 5.59991 7.01518 5.59991 8.36936C5.59991 9.78119 6.57909 10.9994 6.69748 11.156C6.68625 11.1412 6.84858 11.3759 7.06416 11.6563C7.27975 11.9368 7.58122 12.3051 7.95994 12.7039C8.7174 13.5014 9.78238 14.4231 11.1042 14.9868C11.7129 15.246 12.1931 15.4025 12.557 15.5167C13.2312 15.7285 13.8454 15.6963 14.3067 15.6283C14.652 15.5775 15.0318 15.4117 15.4076 15.1739C15.7833 14.9361 16.1516 14.6404 16.314 14.1911C16.4303 13.8691 16.4895 13.5714 16.5109 13.3265C16.5216 13.2041 16.5229 13.096 16.515 12.9959C16.507 12.8959 16.5155 12.8192 16.4223 12.6662C16.2267 12.3451 16.0053 12.3367 15.7742 12.2224C15.6459 12.1588 15.2803 11.9803 14.9137 11.8057C14.5475 11.6312 14.2304 11.4766 14.0352 11.407C13.9118 11.3626 13.7612 11.2987 13.5438 11.3233C13.3265 11.3479 13.1118 11.5047 12.9868 11.69C12.8684 11.8656 12.3915 12.4285 12.2461 12.594C12.2461 12.594 12.2568 12.5986 12.1993 12.5702C12.0195 12.4812 11.7996 12.4055 11.4742 12.2339C11.1487 12.0622 10.7417 11.8087 10.2962 11.416C9.63318 10.8323 9.16876 10.0986 9.02225 9.85249C9.03212 9.84074 9.02108 9.85496 9.04193 9.83444C9.19167 9.68696 9.32519 9.50998 9.43732 9.38081C9.59631 9.19765 9.66647 9.03619 9.74248 8.88534C9.89396 8.58469 9.80961 8.25386 9.72197 8.07979C9.72802 8.09183 9.67456 7.97305 9.61697 7.83698C9.55921 7.70052 9.4856 7.52361 9.40697 7.33495C9.24971 6.95764 9.07415 6.53445 8.96974 6.28659C8.84674 5.99464 8.68034 5.7835 8.46279 5.68202C8.24523 5.58055 8.05302 5.6094 8.04525 5.60902C7.89 5.60185 7.71882 5.59998 7.54979 5.59998ZM7.54979 6.43998C7.71171 6.43998 7.87136 6.44196 8.00506 6.44818C8.1426 6.45504 8.13405 6.4556 8.1076 6.44326C8.08072 6.43073 8.11719 6.42666 8.19537 6.61224C8.2976 6.85494 8.47403 7.27966 8.63177 7.65814C8.71065 7.84738 8.78446 8.02498 8.84342 8.16427C8.90237 8.30357 8.93431 8.38134 8.97139 8.45549L8.9722 8.45712C9.00855 8.52884 9.00534 8.48292 8.99271 8.50798C8.90408 8.68389 8.89206 8.72708 8.8024 8.83037C8.66589 8.98763 8.52665 9.16301 8.45295 9.2356C8.38847 9.29894 8.27212 9.39763 8.19947 9.59079C8.12671 9.78426 8.16067 10.0497 8.2774 10.2479C8.43282 10.5117 8.94496 11.3453 9.74084 12.046C10.2421 12.4878 10.709 12.7803 11.0821 12.977C11.4551 13.1738 11.7589 13.2887 11.8269 13.3224C11.9883 13.4023 12.1648 13.4643 12.3699 13.4397C12.5751 13.4151 12.752 13.2906 12.8646 13.1633C13.0144 12.9934 13.4606 12.4841 13.6742 12.1707C13.6833 12.1739 13.6803 12.1714 13.7513 12.1969C13.7838 12.2085 14.1907 12.3911 14.5528 12.5636C14.9149 12.7361 15.2824 12.9155 15.4018 12.9746C15.5742 13.0599 15.6556 13.1154 15.6766 13.1157C15.678 13.1526 15.6795 13.1927 15.6742 13.2535C15.6594 13.4222 15.6143 13.6557 15.524 13.9056C15.4798 14.028 15.2494 14.2804 14.9588 14.4643C14.6683 14.6482 14.3146 14.778 14.1837 14.7973C13.7899 14.8553 13.3223 14.8765 12.8088 14.7153C12.4528 14.6035 12.0088 14.4589 11.434 14.2141C10.2681 13.7169 9.27725 12.8708 8.56943 12.1256C8.21552 11.7529 7.93198 11.4061 7.73025 11.1437C7.5289 10.8817 7.44098 10.7454 7.36767 10.649C7.23755 10.4769 6.4399 9.36774 6.4399 8.36936C6.4399 7.31274 6.93067 6.89839 7.19623 6.61225C7.33565 6.46203 7.48806 6.43998 7.54979 6.43998Z" fill="white"/>
</svg>
